<mxfile host="app.diagrams.net" agent="Mozilla/5.0 (Macintosh; Intel Mac OS X 10_15_7) AppleWebKit/605.1.15 (KHTML, like Gecko) Version/26.0 Safari/605.1.15" version="28.2.7">
  <diagram name="ページ1" id="D4_nk_Bo1HQeK2BHcGfn">
    <mxGraphModel dx="976" dy="717" grid="1" gridSize="10" guides="1" tooltips="1" connect="1" arrows="1" fold="1" page="1" pageScale="1" pageWidth="827" pageHeight="1169" math="0" shadow="0">
      <root>
        <mxCell id="Spk6TiEBm2NEKn_2dtMf-0" />
        <mxCell id="Spk6TiEBm2NEKn_2dtMf-1" parent="Spk6TiEBm2NEKn_2dtMf-0" />
        <mxCell id="gHZhR3lM7U9omGcD--y5-0" value="開始" style="rounded=1;whiteSpace=wrap;html=1;" parent="Spk6TiEBm2NEKn_2dtMf-1" vertex="1">
          <mxGeometry x="160" y="80" width="120" height="40" as="geometry" />
        </mxCell>
        <mxCell id="gHZhR3lM7U9omGcD--y5-1" value="クライアント&lt;div&gt;接続待機&lt;/div&gt;&lt;div&gt;（ループ）&lt;/div&gt;" style="rounded=1;whiteSpace=wrap;html=1;" parent="Spk6TiEBm2NEKn_2dtMf-1" vertex="1">
          <mxGeometry x="160" y="240" width="120" height="40" as="geometry" />
        </mxCell>
        <mxCell id="gHZhR3lM7U9omGcD--y5-3" value="" style="html=1;shadow=0;dashed=0;align=center;verticalAlign=middle;shape=mxgraph.arrows2.arrow;dy=0.6;dx=40;direction=south;notch=0;" parent="Spk6TiEBm2NEKn_2dtMf-1" vertex="1">
          <mxGeometry x="202.5" y="130" width="35" height="20" as="geometry" />
        </mxCell>
        <mxCell id="gHZhR3lM7U9omGcD--y5-4" value="" style="html=1;shadow=0;dashed=0;align=center;verticalAlign=middle;shape=mxgraph.arrows2.arrow;dy=0.6;dx=40;direction=south;notch=0;" parent="Spk6TiEBm2NEKn_2dtMf-1" vertex="1">
          <mxGeometry x="202.5" y="210" width="35" height="20" as="geometry" />
        </mxCell>
        <mxCell id="gHZhR3lM7U9omGcD--y5-6" value="開始" style="rounded=1;whiteSpace=wrap;html=1;" parent="Spk6TiEBm2NEKn_2dtMf-1" vertex="1">
          <mxGeometry x="680" y="80" width="120" height="40" as="geometry" />
        </mxCell>
        <mxCell id="gHZhR3lM7U9omGcD--y5-7" value="メタバース起動" style="rounded=1;whiteSpace=wrap;html=1;" parent="Spk6TiEBm2NEKn_2dtMf-1" vertex="1">
          <mxGeometry x="160" y="160" width="120" height="40" as="geometry" />
        </mxCell>
        <mxCell id="gHZhR3lM7U9omGcD--y5-8" value="クライアント側アプリ起動" style="rounded=1;whiteSpace=wrap;html=1;" parent="Spk6TiEBm2NEKn_2dtMf-1" vertex="1">
          <mxGeometry x="680" y="160" width="120" height="40" as="geometry" />
        </mxCell>
        <mxCell id="gHZhR3lM7U9omGcD--y5-9" value="ユーザー情報送信" style="rounded=1;whiteSpace=wrap;html=1;" parent="Spk6TiEBm2NEKn_2dtMf-1" vertex="1">
          <mxGeometry x="680" y="240" width="120" height="40" as="geometry" />
        </mxCell>
        <mxCell id="gHZhR3lM7U9omGcD--y5-10" value="" style="html=1;shadow=0;dashed=0;align=center;verticalAlign=middle;shape=mxgraph.arrows2.arrow;dy=0.6;dx=40;direction=south;notch=0;" parent="Spk6TiEBm2NEKn_2dtMf-1" vertex="1">
          <mxGeometry x="722.5" y="210" width="35" height="20" as="geometry" />
        </mxCell>
        <mxCell id="gHZhR3lM7U9omGcD--y5-11" value="" style="html=1;shadow=0;dashed=0;align=center;verticalAlign=middle;shape=mxgraph.arrows2.arrow;dy=0.6;dx=40;direction=south;notch=0;" parent="Spk6TiEBm2NEKn_2dtMf-1" vertex="1">
          <mxGeometry x="722.5" y="130" width="35" height="20" as="geometry" />
        </mxCell>
        <mxCell id="gHZhR3lM7U9omGcD--y5-13" value="" style="html=1;shadow=0;dashed=0;align=center;verticalAlign=middle;shape=mxgraph.arrows2.twoWayArrow;dy=0.65;dx=22;" parent="Spk6TiEBm2NEKn_2dtMf-1" vertex="1">
          <mxGeometry x="610" y="400" width="60" height="40" as="geometry" />
        </mxCell>
        <mxCell id="gHZhR3lM7U9omGcD--y5-14" value="ワールド読み込み" style="rounded=1;whiteSpace=wrap;html=1;" parent="Spk6TiEBm2NEKn_2dtMf-1" vertex="1">
          <mxGeometry x="680" y="320" width="120" height="40" as="geometry" />
        </mxCell>
        <mxCell id="gHZhR3lM7U9omGcD--y5-21" value="ワールドデータ送信" style="rounded=1;whiteSpace=wrap;html=1;" parent="Spk6TiEBm2NEKn_2dtMf-1" vertex="1">
          <mxGeometry x="480" y="320" width="120" height="40" as="geometry" />
        </mxCell>
        <mxCell id="gHZhR3lM7U9omGcD--y5-23" value="" style="html=1;shadow=0;dashed=0;align=center;verticalAlign=middle;shape=mxgraph.arrows2.arrow;dy=0.6;dx=40;direction=south;notch=0;rotation=-90;" parent="Spk6TiEBm2NEKn_2dtMf-1" vertex="1">
          <mxGeometry x="622.5" y="330" width="35" height="20" as="geometry" />
        </mxCell>
        <mxCell id="gHZhR3lM7U9omGcD--y5-24" value="" style="html=1;shadow=0;dashed=0;align=center;verticalAlign=middle;shape=mxgraph.arrows2.arrow;dy=0.6;dx=40;direction=south;notch=0;" parent="Spk6TiEBm2NEKn_2dtMf-1" vertex="1">
          <mxGeometry x="722.5" y="370" width="35" height="20" as="geometry" />
        </mxCell>
        <mxCell id="gHZhR3lM7U9omGcD--y5-25" value="" style="html=1;shadow=0;dashed=0;align=center;verticalAlign=middle;shape=mxgraph.arrows2.arrow;dy=0.6;dx=40;direction=south;notch=0;" parent="Spk6TiEBm2NEKn_2dtMf-1" vertex="1">
          <mxGeometry x="522.5" y="370" width="35" height="20" as="geometry" />
        </mxCell>
        <mxCell id="i-yefZJhUaRDlqQRjVkv-0" value="ゲームデータ処理&lt;div&gt;（ループ）&lt;/div&gt;" style="rounded=1;whiteSpace=wrap;html=1;" vertex="1" parent="Spk6TiEBm2NEKn_2dtMf-1">
          <mxGeometry x="480" y="400" width="120" height="40" as="geometry" />
        </mxCell>
        <mxCell id="i-yefZJhUaRDlqQRjVkv-1" value="ゲームデータ処理&lt;div&gt;（ループ）&lt;/div&gt;" style="rounded=1;whiteSpace=wrap;html=1;" vertex="1" parent="Spk6TiEBm2NEKn_2dtMf-1">
          <mxGeometry x="680" y="400" width="120" height="40" as="geometry" />
        </mxCell>
        <mxCell id="i-yefZJhUaRDlqQRjVkv-3" value="" style="html=1;shadow=0;dashed=0;align=center;verticalAlign=middle;shape=mxgraph.arrows2.arrow;dy=0.6;dx=40;direction=south;notch=0;" vertex="1" parent="Spk6TiEBm2NEKn_2dtMf-1">
          <mxGeometry x="722.5" y="450" width="35" height="20" as="geometry" />
        </mxCell>
        <mxCell id="i-yefZJhUaRDlqQRjVkv-5" value="" style="html=1;shadow=0;dashed=0;align=center;verticalAlign=middle;shape=mxgraph.arrows2.arrow;dy=0.6;dx=40;direction=south;notch=0;rotation=90;" vertex="1" parent="Spk6TiEBm2NEKn_2dtMf-1">
          <mxGeometry x="440" y="410" width="35" height="20" as="geometry" />
        </mxCell>
        <mxCell id="i-yefZJhUaRDlqQRjVkv-6" value="チャットログ等&lt;div&gt;整理処理&lt;/div&gt;" style="rounded=1;whiteSpace=wrap;html=1;" vertex="1" parent="Spk6TiEBm2NEKn_2dtMf-1">
          <mxGeometry x="320" y="400" width="120" height="40" as="geometry" />
        </mxCell>
        <mxCell id="i-yefZJhUaRDlqQRjVkv-7" value="" style="html=1;shadow=0;dashed=0;align=center;verticalAlign=middle;shape=mxgraph.arrows2.arrow;dy=0.6;dx=40;direction=south;notch=0;" vertex="1" parent="Spk6TiEBm2NEKn_2dtMf-1">
          <mxGeometry x="362.5" y="450" width="35" height="20" as="geometry" />
        </mxCell>
        <mxCell id="i-yefZJhUaRDlqQRjVkv-8" value="先生PCへ送信" style="rounded=1;whiteSpace=wrap;html=1;" vertex="1" parent="Spk6TiEBm2NEKn_2dtMf-1">
          <mxGeometry x="320" y="480" width="120" height="40" as="geometry" />
        </mxCell>
        <mxCell id="i-yefZJhUaRDlqQRjVkv-9" value="ログアウト要求" style="rounded=1;whiteSpace=wrap;html=1;" vertex="1" parent="Spk6TiEBm2NEKn_2dtMf-1">
          <mxGeometry x="680" y="480" width="120" height="40" as="geometry" />
        </mxCell>
        <mxCell id="i-yefZJhUaRDlqQRjVkv-10" value="" style="html=1;shadow=0;dashed=0;align=center;verticalAlign=middle;shape=mxgraph.arrows2.arrow;dy=0.6;dx=40;direction=south;notch=0;rotation=90;" vertex="1" parent="Spk6TiEBm2NEKn_2dtMf-1">
          <mxGeometry x="622.5" y="490" width="35" height="20" as="geometry" />
        </mxCell>
        <mxCell id="i-yefZJhUaRDlqQRjVkv-11" value="ログアウト処理" style="rounded=1;whiteSpace=wrap;html=1;" vertex="1" parent="Spk6TiEBm2NEKn_2dtMf-1">
          <mxGeometry x="480" y="480" width="120" height="40" as="geometry" />
        </mxCell>
        <mxCell id="i-yefZJhUaRDlqQRjVkv-12" value="" style="html=1;shadow=0;dashed=0;align=center;verticalAlign=middle;shape=mxgraph.arrows2.arrow;dy=0.6;dx=40;direction=south;notch=0;" vertex="1" parent="Spk6TiEBm2NEKn_2dtMf-1">
          <mxGeometry x="722.5" y="530" width="35" height="20" as="geometry" />
        </mxCell>
        <mxCell id="i-yefZJhUaRDlqQRjVkv-13" value="終了" style="rounded=1;whiteSpace=wrap;html=1;" vertex="1" parent="Spk6TiEBm2NEKn_2dtMf-1">
          <mxGeometry x="680" y="560" width="120" height="40" as="geometry" />
        </mxCell>
        <mxCell id="i-yefZJhUaRDlqQRjVkv-14" value="" style="html=1;shadow=0;dashed=0;align=center;verticalAlign=middle;shape=mxgraph.arrows2.arrow;dy=0.6;dx=40;direction=south;notch=0;" vertex="1" parent="Spk6TiEBm2NEKn_2dtMf-1">
          <mxGeometry x="522.5" y="530" width="35" height="20" as="geometry" />
        </mxCell>
        <mxCell id="i-yefZJhUaRDlqQRjVkv-15" value="終了" style="rounded=1;whiteSpace=wrap;html=1;" vertex="1" parent="Spk6TiEBm2NEKn_2dtMf-1">
          <mxGeometry x="480" y="560" width="120" height="40" as="geometry" />
        </mxCell>
        <mxCell id="i-yefZJhUaRDlqQRjVkv-16" value="" style="html=1;shadow=0;dashed=0;align=center;verticalAlign=middle;shape=mxgraph.arrows2.arrow;dy=0.6;dx=40;direction=south;notch=0;" vertex="1" parent="Spk6TiEBm2NEKn_2dtMf-1">
          <mxGeometry x="362.5" y="530" width="35" height="20" as="geometry" />
        </mxCell>
        <mxCell id="i-yefZJhUaRDlqQRjVkv-17" value="終了" style="rounded=1;whiteSpace=wrap;html=1;" vertex="1" parent="Spk6TiEBm2NEKn_2dtMf-1">
          <mxGeometry x="320" y="560" width="120" height="40" as="geometry" />
        </mxCell>
        <mxCell id="i-yefZJhUaRDlqQRjVkv-20" value="プレイヤー数確認" style="rounded=1;whiteSpace=wrap;html=1;" vertex="1" parent="Spk6TiEBm2NEKn_2dtMf-1">
          <mxGeometry x="160" y="400" width="120" height="40" as="geometry" />
        </mxCell>
        <mxCell id="i-yefZJhUaRDlqQRjVkv-21" value="" style="html=1;shadow=0;dashed=0;align=center;verticalAlign=middle;shape=mxgraph.arrows2.arrow;dy=0.6;dx=40;direction=south;notch=0;" vertex="1" parent="Spk6TiEBm2NEKn_2dtMf-1">
          <mxGeometry x="202.5" y="450" width="35" height="20" as="geometry" />
        </mxCell>
        <mxCell id="i-yefZJhUaRDlqQRjVkv-22" value="メタバース終了処理" style="rounded=1;whiteSpace=wrap;html=1;" vertex="1" parent="Spk6TiEBm2NEKn_2dtMf-1">
          <mxGeometry x="160" y="480" width="120" height="40" as="geometry" />
        </mxCell>
        <mxCell id="i-yefZJhUaRDlqQRjVkv-23" value="" style="html=1;shadow=0;dashed=0;align=center;verticalAlign=middle;shape=mxgraph.arrows2.arrow;dy=0.6;dx=40;direction=south;notch=0;" vertex="1" parent="Spk6TiEBm2NEKn_2dtMf-1">
          <mxGeometry x="202.5" y="530" width="35" height="20" as="geometry" />
        </mxCell>
        <mxCell id="i-yefZJhUaRDlqQRjVkv-24" value="サーバー終了" style="rounded=1;whiteSpace=wrap;html=1;" vertex="1" parent="Spk6TiEBm2NEKn_2dtMf-1">
          <mxGeometry x="160" y="560" width="120" height="40" as="geometry" />
        </mxCell>
        <mxCell id="i-yefZJhUaRDlqQRjVkv-27" value="" style="html=1;shadow=0;dashed=0;align=center;verticalAlign=middle;shape=mxgraph.arrows2.arrow;dy=0.6;dx=40;direction=south;notch=0;rotation=-70;" vertex="1" parent="Spk6TiEBm2NEKn_2dtMf-1">
          <mxGeometry x="362.5" y="230" width="35" height="160" as="geometry" />
        </mxCell>
        <mxCell id="i-yefZJhUaRDlqQRjVkv-28" value="" style="html=1;shadow=0;dashed=0;align=center;verticalAlign=middle;shape=mxgraph.arrows2.arrow;dy=0.6;dx=40;direction=south;notch=0;" vertex="1" parent="Spk6TiEBm2NEKn_2dtMf-1">
          <mxGeometry x="202.5" y="290" width="35" height="20" as="geometry" />
        </mxCell>
        <mxCell id="i-yefZJhUaRDlqQRjVkv-29" value="サーバー終了&lt;div&gt;処理開始&lt;/div&gt;" style="rounded=1;whiteSpace=wrap;html=1;" vertex="1" parent="Spk6TiEBm2NEKn_2dtMf-1">
          <mxGeometry x="160" y="320" width="120" height="40" as="geometry" />
        </mxCell>
        <mxCell id="i-yefZJhUaRDlqQRjVkv-30" value="" style="html=1;shadow=0;dashed=0;align=center;verticalAlign=middle;shape=mxgraph.arrows2.arrow;dy=0.6;dx=40;direction=south;notch=0;" vertex="1" parent="Spk6TiEBm2NEKn_2dtMf-1">
          <mxGeometry x="202.5" y="370" width="35" height="20" as="geometry" />
        </mxCell>
        <mxCell id="i-yefZJhUaRDlqQRjVkv-31" value="サーバーメイン&lt;div&gt;処理部分&lt;/div&gt;" style="rounded=0;whiteSpace=wrap;html=1;" vertex="1" parent="Spk6TiEBm2NEKn_2dtMf-1">
          <mxGeometry x="160" y="640" width="120" height="40" as="geometry" />
        </mxCell>
        <mxCell id="i-yefZJhUaRDlqQRjVkv-32" value="行動ログ&lt;div&gt;送信部分&lt;/div&gt;" style="rounded=0;whiteSpace=wrap;html=1;" vertex="1" parent="Spk6TiEBm2NEKn_2dtMf-1">
          <mxGeometry x="320" y="640" width="120" height="40" as="geometry" />
        </mxCell>
        <mxCell id="i-yefZJhUaRDlqQRjVkv-33" value="マルチプレイ&lt;div&gt;処理部分&lt;/div&gt;" style="rounded=0;whiteSpace=wrap;html=1;" vertex="1" parent="Spk6TiEBm2NEKn_2dtMf-1">
          <mxGeometry x="480" y="640" width="120" height="40" as="geometry" />
        </mxCell>
        <mxCell id="i-yefZJhUaRDlqQRjVkv-34" value="クライアント&lt;div&gt;処理部分&lt;/div&gt;" style="rounded=0;whiteSpace=wrap;html=1;" vertex="1" parent="Spk6TiEBm2NEKn_2dtMf-1">
          <mxGeometry x="680" y="640" width="120" height="40" as="geometry" />
        </mxCell>
        <mxCell id="i-yefZJhUaRDlqQRjVkv-36" value="" style="whiteSpace=wrap;html=1;fillColor=none;" vertex="1" parent="Spk6TiEBm2NEKn_2dtMf-1">
          <mxGeometry x="470" y="310" width="140" height="320" as="geometry" />
        </mxCell>
        <mxCell id="i-yefZJhUaRDlqQRjVkv-37" value="" style="whiteSpace=wrap;html=1;fillColor=none;" vertex="1" parent="Spk6TiEBm2NEKn_2dtMf-1">
          <mxGeometry x="310" y="390" width="140" height="240" as="geometry" />
        </mxCell>
        <mxCell id="i-yefZJhUaRDlqQRjVkv-38" value="" style="whiteSpace=wrap;html=1;fillColor=none;" vertex="1" parent="Spk6TiEBm2NEKn_2dtMf-1">
          <mxGeometry x="150" y="70" width="140" height="560" as="geometry" />
        </mxCell>
        <mxCell id="i-yefZJhUaRDlqQRjVkv-39" value="" style="whiteSpace=wrap;html=1;fillColor=none;" vertex="1" parent="Spk6TiEBm2NEKn_2dtMf-1">
          <mxGeometry x="670" y="70" width="140" height="560" as="geometry" />
        </mxCell>
      </root>
    </mxGraphModel>
  </diagram>
</mxfile>
